<mxfile host="app.diagrams.net" modified="2023-10-15T19:45:17.439Z" agent="Mozilla/5.0 (Macintosh; Intel Mac OS X 10_15_7) AppleWebKit/605.1.15 (KHTML, like Gecko) Version/16.6 Safari/605.1.15" version="22.0.4" etag="BulTqoyPmxVJPXpidlye" type="github">
  <diagram name="Страница — 1" id="6sVp4euf08QDdtB_jIx9">
    <mxGraphModel>
      <root>
        <mxCell id="0" />
        <mxCell id="1" parent="0" />
      </root>
    </mxGraphModel>
  </diagram>
</mxfile>
